<svg xmlns="http://www.w3.org/2000/svg" viewBox="0 0 64 64"><style type="text/css">.st0,.st1{fill:none;stroke:#333;stroke-linecap:round}.st0{stroke-width:4;stroke-dasharray:60,20}.st1{stroke-width:2}.st2{fill:#333}</style><polygon points="16 48 8 16 40 8 44 24 36 26 34 18 18 22 24 46" class="st2"/><circle cx="14" cy="46" r="10" class="st2"/><circle cx="46" cy="34" r="12" class="st0" transform="rotate(90,46,34)"/><circle cx="46" cy="34" r="8" class="st1"/><path d="M52,41q0-1,1-1h2q1,0,1,1v14q0,1-1,1h-2q-1,0-1-1z" class="st1" transform="rotate(-30,54,48)"/><path d="M40.5,34.5c0-3.3,2.7-6,6-6" class="st1"/></svg>